<?xml version="1.0" standalone="no"?>
<!DOCTYPE svg PUBLIC "-//W3C//DTD SVG 20010904//EN"
 "http://www.w3.org/TR/2001/REC-SVG-20010904/DTD/svg10.dtd">
<svg version="1.0" xmlns="http://www.w3.org/2000/svg"
 width="512.000000pt" height="512.000000pt" viewBox="0 0 512.000000 512.000000"
 preserveAspectRatio="xMidYMid meet">
<metadata>
Created by potrace 1.11, written by Peter Selinger 2001-2013
</metadata>
<g transform="translate(0.000000,512.000000) scale(0.100000,-0.100000)"
fill="#000000" stroke="none">
<path d="M1337 5030 c-97 -101 -158 -195 -252 -385 -83 -167 -119 -215 -205
-271 -39 -25 -70 -48 -70 -51 0 -3 27 -3 60 0 48 4 60 2 60 -10 0 -8 -13 -67
-29 -131 -75 -300 -68 -439 33 -640 25 -50 49 -93 54 -96 4 -2 0 34 -10 82
-28 139 -24 147 27 58 24 -43 64 -101 88 -129 24 -29 65 -79 92 -112 62 -78
99 -111 160 -141 63 -30 72 -30 97 1 14 19 29 25 56 25 37 0 37 -1 39 -43 2
-46 86 -329 109 -364 13 -21 15 -21 59 -6 66 22 75 41 75 153 0 118 -6 140
-34 140 -32 0 -59 23 -54 46 3 14 11 19 36 18 18 -1 32 -1 32 1 0 1 -7 18 -15
38 l-14 35 31 6 c59 12 145 7 158 -9 18 -22 33 -19 20 4 -7 14 -6 21 3 24 9 4
9 6 -1 6 -22 2 -50 34 -71 84 -26 59 -26 70 -3 36 20 -31 93 -120 108 -134 6
-5 33 -44 59 -85 27 -41 78 -105 114 -143 68 -71 168 -153 176 -145 3 3 8 35
11 72 4 58 60 255 76 271 3 3 15 -16 26 -43 11 -26 31 -57 43 -67 l22 -20 -5
23 c-7 25 1 28 21 10 11 -11 13 -9 8 12 -21 88 -19 104 13 142 59 71 129 72
190 2 33 -39 48 -85 60 -193 8 -65 46 -271 66 -351 l6 -25 18 23 19 23 6 -28
c24 -105 53 -187 68 -189 11 -1 17 5 17 19 0 20 2 20 19 -6 10 -15 27 -35 39
-43 18 -12 22 -12 35 0 10 10 17 12 25 4 16 -16 32 0 32 30 l0 27 24 -30 c21
-26 25 -28 31 -13 4 10 11 15 16 12 5 -3 9 2 9 11 0 9 9 28 20 42 20 26 23 24
33 -22 3 -14 5 -12 6 8 1 28 26 97 35 97 3 0 2 -17 -1 -37 l-5 -38 28 45 c58
94 107 152 140 166 75 32 193 112 256 176 70 71 86 82 68 47 -24 -44 -1 -26
39 31 42 60 96 170 121 245 7 22 15 35 17 28 9 -25 -44 -247 -84 -353 -5 -13
-4 -13 9 0 23 24 146 289 184 397 89 248 106 328 106 503 1 159 -17 270 -67
425 -19 59 -33 110 -31 113 3 2 58 -1 123 -8 65 -7 132 -11 148 -9 27 4 24 6
-33 28 -82 31 -243 138 -362 241 -124 108 -248 189 -334 219 l-68 24 48 19
c98 36 239 42 319 12 18 -7 18 -6 7 9 -19 22 -98 51 -217 77 -83 18 -117 21
-202 15 l-103 -6 6 30 7 31 -1006 0 -1005 0 -85 -90z m2237 -533 c28 -21 12
-59 -22 -55 -30 3 -41 30 -22 53 15 18 21 19 44 2z m39 -238 c31 -16 37 -28
37 -71 0 -47 -28 -78 -70 -78 -66 0 -95 86 -45 135 27 28 45 31 78 14z m-1958
-615 c14 -38 27 -73 28 -79 2 -8 -19 -10 -82 -6 -11 1 -12 13 -7 55 6 57 23
112 31 104 3 -2 16 -36 30 -74z m46 11 c5 4 9 0 9 -7 0 -10 2 -10 8 -1 5 8 12
-6 18 -38 10 -47 10 -50 -10 -47 -14 2 -25 18 -38 53 -20 55 -23 80 -7 52 6
-9 14 -15 20 -12z m-212 -32 c-1 -38 -1 -38 -9 -9 -8 27 -6 46 6 46 2 0 4 -17
3 -37z m531 25 c0 -19 -18 -44 -25 -36 -4 3 0 15 7 27 15 24 18 26 18 9z m36
-79 c-4 -26 -1 -100 5 -164 8 -87 8 -119 0 -129 -8 -10 -9 -16 -1 -21 16 -10
12 -35 -6 -35 -8 0 -13 4 -10 9 3 5 -1 11 -9 15 -8 3 -15 11 -14 18 0 10 2 10
6 1 7 -18 20 -16 20 2 0 8 -4 15 -9 15 -4 0 -8 5 -8 11 0 8 5 8 15 -1 21 -17
20 -15 -24 118 -43 129 -62 229 -39 201 7 -9 23 -19 36 -22 18 -4 22 -1 22 20
0 15 4 22 11 17 7 -4 9 -24 5 -55z m208 -28 c-4 -21 -12 -30 -22 -29 -10 2
-17 -5 -19 -17 -3 -19 -3 -19 5 -1 19 43 23 -9 11 -112 -12 -93 -14 -102 -20
-67 -4 22 -8 76 -9 120 -2 102 -2 105 8 104 20 -3 31 3 37 22 10 31 16 17 9
-20z m-24 13 c0 -2 -7 -4 -15 -4 -8 0 -15 4 -15 10 0 5 7 7 15 4 8 -4 15 -8
15 -10z m-540 -26 c6 -7 28 -41 49 -75 22 -33 56 -80 77 -102 20 -23 35 -43
33 -46 -3 -2 -46 -5 -97 -6 l-93 -2 -24 34 c-24 34 -60 150 -53 171 4 11 60
36 85 37 7 1 17 -5 23 -11z m69 -34 c7 -26 10 -48 9 -50 -2 -1 -16 19 -31 47
-26 46 -27 49 -9 49 15 0 22 -11 31 -46z m-231 -26 c9 -60 9 -77 2 -73 -5 3
-9 13 -9 23 1 9 -2 27 -6 40 -4 12 -3 22 2 22 5 0 10 -6 11 -12z m-40 -50 c51
-67 112 -126 112 -109 0 7 5 9 11 5 18 -11 -10 -22 -87 -34 -38 -6 -79 -13
-91 -16 -18 -5 -23 0 -32 33 -6 21 -11 68 -11 106 l0 67 29 0 c23 0 37 -11 69
-52z m87 -58 c10 -11 14 -20 8 -20 -5 0 -18 9 -28 20 -10 11 -14 20 -8 20 5 0
18 -9 28 -20z m-182 -123 c26 -36 12 -55 -19 -26 -17 16 -24 33 -24 58 0 33 1
34 13 15 6 -12 20 -33 30 -47z m42 3 c-3 -5 -11 -10 -16 -10 -6 0 -7 5 -4 10
3 6 11 10 16 10 6 0 7 -4 4 -10z m677 -29 c9 -11 14 -21 12 -23 -2 -3 3 -5 11
-5 8 0 11 5 8 10 -4 6 3 8 18 4 13 -4 28 -7 32 -7 5 0 6 -4 2 -10 -3 -5 -12
-7 -20 -3 -8 3 -15 0 -15 -7 0 -6 -5 -8 -12 -4 -7 4 -8 3 -4 -4 4 -7 17 -10
29 -7 18 5 24 0 33 -30 6 -19 8 -35 3 -35 -9 0 12 -73 24 -81 4 -3 9 -13 11
-21 1 -9 8 -24 16 -34 29 -36 -44 23 -96 78 -92 97 -121 147 -104 179 13 24
31 24 52 0z m160 -108 c4 9 13 17 20 16 10 0 10 -2 1 -6 -7 -2 -13 -15 -13
-27 0 -13 -3 -26 -7 -29 -11 -12 -32 50 -25 75 6 20 7 19 12 -12 4 -26 7 -31
12 -17z m-662 17 c0 -5 -4 -10 -10 -10 -5 0 -10 5 -10 10 0 6 5 10 10 10 6 0
10 -4 10 -10z m90 -30 c0 -5 -7 -10 -16 -10 -8 0 -12 5 -9 10 3 6 10 10 16 10
5 0 9 -4 9 -10z m-80 -19 c10 -20 4 -51 -11 -51 -11 0 -29 34 -29 54 0 22 27
20 40 -3z m130 -121 c0 -53 -17 -87 -51 -99 -36 -12 -54 2 -74 58 -19 55 -6
77 25 43 28 -30 48 -28 68 8 23 40 32 38 32 -10z"/>
<path d="M2078 3193 c7 -3 16 -2 19 1 4 3 -2 6 -13 5 -11 0 -14 -3 -6 -6z"/>
<path d="M2320 2110 c-13 -8 -12 -10 3 -10 9 0 17 5 17 10 0 12 -1 12 -20 0z"/>
<path d="M3416 2067 c3 -10 9 -15 12 -12 3 3 0 11 -7 18 -10 9 -11 8 -5 -6z"/>
<path d="M3514 1934 c-19 -15 -19 -16 1 -9 11 4 27 9 35 12 8 2 30 -12 49 -31
l33 -34 29 -284 c69 -680 82 -833 80 -934 l-1 -52 -122 -118 c-67 -66 -141
-137 -163 -159 -63 -63 -239 -255 -248 -272 -5 -8 -23 -23 -40 -34 -32 -19
-26 -19 831 -19 474 0 862 2 862 6 0 3 -19 32 -42 66 -24 33 -53 76 -65 94
-40 59 -271 301 -360 377 -49 41 -99 87 -112 101 -14 15 -46 40 -73 57 l-48
31 -1 62 c0 33 -2 68 -3 76 -2 8 -6 69 -10 135 -8 135 -34 403 -41 424 -3 7 0
19 5 27 8 9 7 19 -4 36 -9 13 -18 56 -22 95 l-7 72 -126 73 c-69 40 -152 89
-183 109 -31 20 -77 41 -100 47 -24 6 -55 23 -68 37 -27 29 -58 32 -86 9z
m496 -984 c0 -13 -7 -20 -20 -20 -19 0 -27 20 -13 33 13 14 33 6 33 -13z m-52
-180 c23 -14 32 -27 32 -47 0 -59 -67 -84 -107 -40 -38 41 -34 79 10 97 30 12
28 12 65 -10z"/>
<path d="M3465 1910 c-3 -5 1 -10 9 -10 9 0 16 5 16 10 0 6 -4 10 -9 10 -6 0
-13 -4 -16 -10z"/>
<path d="M1966 1731 c-4 -7 -5 -15 -2 -18 9 -9 19 4 14 18 -4 11 -6 11 -12 0z"/>
<path d="M4123 1440 c3 -8 24 -60 47 -115 23 -55 61 -158 85 -229 40 -116 55
-153 55 -132 0 36 -150 433 -178 471 -8 11 -12 13 -9 5z"/>
<path d="M2321 204 c0 -11 3 -14 6 -6 3 7 2 16 -1 19 -3 4 -6 -2 -5 -13z"/>
</g>
</svg>
